<svg xmlns="http://www.w3.org/2000/svg" viewBox="0 0 100 100">
  <rect width="100" height="100" rx="22" fill="#0a0a0f"/>
  <path d="M30 40 L14 10 C13 8 16 6 18 8 L40 30 Z" fill="#f6c915"/>
  <path d="M70 40 L86 10 C87 8 84 6 82 8 L60 30 Z" fill="#f6c915"/>
  <path d="M18 12 L26 24 L21 27 L15 15 Z" fill="#2a2a2a"/>
  <path d="M82 12 L74 24 L79 27 L85 15 Z" fill="#2a2a2a"/>
  <circle cx="50" cy="56" r="30" fill="#f6c915"/>
  <circle cx="30" cy="64" r="7" fill="#e23b2e"/>
  <circle cx="70" cy="64" r="7" fill="#e23b2e"/>
  <circle cx="39" cy="50" r="5.5" fill="#1a1a1a"/>
  <circle cx="61" cy="50" r="5.5" fill="#1a1a1a"/>
  <circle cx="40.8" cy="48.2" r="1.8" fill="#fff"/>
  <circle cx="62.8" cy="48.2" r="1.8" fill="#fff"/>
  <path d="M48 58 h4 v2.5 h-4 z" fill="#1a1a1a"/>
  <path d="M40 62 Q50 70 60 62" fill="none" stroke="#1a1a1a" stroke-width="2.4" stroke-linecap="round"/>
</svg>
